<svg width="100" height="100" viewBox="0 0 100 100" fill="none" xmlns="http://www.w3.org/2000/svg">
<path fill-rule="evenodd" clip-rule="evenodd" d="M53.7037 16.7655C53.7037 14.5084 53.1199 12.2823 51.9981 10.2635C51.0287 8.51842 50.4595 6.6156 50.3243 4.66835L50 0L49.6759 4.66819C49.5405 6.61546 48.9713 8.51833 48.0019 10.2634C46.8803 12.2823 46.2963 14.5085 46.2963 16.7656V83.2344C46.2963 85.4915 46.8803 87.7177 48.0019 89.7367C48.9713 91.4817 49.5405 93.3846 49.6759 95.3319L50 100L50.3243 95.3317C50.4595 93.3844 51.0287 91.4817 51.9981 89.7365C53.1199 87.7177 53.7037 85.4917 53.7037 83.2344V16.7655ZM33.4796 16.9301C34.6014 18.949 35.1852 21.1752 35.1852 23.4323V76.5677C35.1852 78.825 34.6014 81.051 33.4796 83.07C32.5102 84.815 31.941 86.7179 31.8056 88.665L31.4815 93.3333L31.1574 88.665C31.022 86.7179 30.4528 84.815 29.4833 83.07C28.3616 81.051 27.7778 78.825 27.7778 76.5677V23.4323C27.7778 21.1752 28.3616 18.949 29.4833 16.9301C30.4528 15.1851 31.022 13.2822 31.1574 11.335L31.4815 6.66669L31.8056 11.335C31.941 13.2822 32.5102 15.1851 33.4796 16.9301ZM25.9259 30.099C25.9259 27.8417 25.3421 25.6156 24.2204 23.5969C23.2509 21.8517 22.6816 19.9489 22.5464 18.0016L22.2222 13.3333L21.898 18.0016C21.7628 19.9489 21.1935 21.8517 20.224 23.5969C19.1024 25.6156 18.5185 27.8417 18.5185 30.099V69.901C18.5185 72.1581 19.1024 74.3844 20.224 76.4031C21.1935 78.1483 21.7628 80.051 21.898 81.9983L22.2222 86.6667L22.5464 81.9983C22.6816 80.051 23.2509 78.1483 24.2204 76.4031C25.3421 74.3844 25.9259 72.1581 25.9259 69.901V30.099ZM14.9612 36.93C16.0828 38.949 16.6667 41.175 16.6667 43.4323V56.5677C16.6667 58.8248 16.0828 61.051 14.9612 63.0698C13.9917 64.815 13.4224 66.7177 13.2872 68.665L12.963 73.3333L12.6388 68.665C12.5035 66.7177 11.9342 64.815 10.9647 63.0698C9.84317 61.051 9.25926 58.8248 9.25926 56.5677V43.4323C9.25926 41.175 9.84317 38.949 10.9647 36.93C11.9342 35.185 12.5035 33.2821 12.6388 31.335L12.963 26.6667L13.2872 31.335C13.4224 33.2821 13.9917 35.185 14.9612 36.93ZM7.40704 50L7.40741 50.099V49.901L7.40704 50ZM0 50.099L0.000373662 50C0.0171742 52.2233 0.600294 54.414 1.70549 56.4031C2.67498 58.1483 3.24428 60.051 3.37951 61.9983L3.7037 66.6667L4.02789 61.9983C4.16313 60.051 4.73243 58.1483 5.70192 56.4031C6.80711 54.414 7.39023 52.2233 7.40704 50C7.39023 47.7767 6.80711 45.586 5.70192 43.5969C4.73243 41.8517 4.16313 39.949 4.02789 38.0017L3.7037 33.3333L3.37951 38.0017C3.24428 39.949 2.67498 41.8517 1.70549 43.5969C0.600294 45.586 0.0171742 47.7767 0.000373662 50L0 49.901V50.099ZM42.7389 10.2635C43.8606 12.2823 44.4444 14.5084 44.4444 16.7656V83.2344C44.4444 85.4917 43.8606 87.7177 42.7389 89.7365C41.7694 91.4817 41.2002 93.3844 41.0648 95.3317L40.7407 100L40.4167 95.3317C40.2812 93.3844 39.712 91.4817 38.7426 89.7365C37.6208 87.7177 37.037 85.4917 37.037 83.2344V16.7656C37.037 14.5084 37.6208 12.2823 38.7426 10.2635C39.712 8.51837 40.2812 6.61552 40.4167 4.66827L40.7407 0L41.0648 4.66827C41.2002 6.61552 41.7694 8.51837 42.7389 10.2635ZM61.2574 10.2635C62.3792 12.2823 62.963 14.5084 62.963 16.7656V83.2344C62.963 85.4917 62.3792 87.7177 61.2574 89.7365C60.288 91.4817 59.7188 93.3844 59.5833 95.3317L59.2593 100L58.9352 95.3317C58.7998 93.3844 58.2306 91.4817 57.2611 89.7365C56.1394 87.7177 55.5556 85.4917 55.5556 83.2344V16.7656C55.5556 14.5084 56.1394 12.2823 57.2611 10.2635C58.2306 8.51837 58.7998 6.61552 58.9352 4.66827L59.2593 0L59.5833 4.66827C59.7188 6.61552 60.288 8.51837 61.2574 10.2635ZM72.2222 23.4323C72.2222 21.1752 71.6384 18.949 70.5167 16.9301C69.5472 15.1851 68.978 13.2822 68.8426 11.335L68.5185 6.66669L68.1944 11.335C68.059 13.2822 67.4898 15.1851 66.5204 16.9301C65.3986 18.949 64.8148 21.1752 64.8148 23.4323V76.5677C64.8148 78.825 65.3986 81.051 66.5204 83.07C67.4898 84.815 68.059 86.7179 68.1944 88.665L68.5185 93.3333L68.8426 88.665C68.978 86.7179 69.5472 84.815 70.5167 83.07C71.6384 81.051 72.2222 78.825 72.2222 76.5677V23.4323ZM79.7759 23.5969C80.8977 25.6156 81.4815 27.8417 81.4815 30.099V69.901C81.4815 72.1581 80.8977 74.3844 79.7759 76.4031C78.8065 78.1483 78.2373 80.051 78.1019 81.9983L77.7778 86.6667L77.4537 81.9983C77.3183 80.051 76.7491 78.1483 75.7796 76.4031C74.6581 74.3844 74.0741 72.1581 74.0741 69.901V30.099C74.0741 27.8417 74.6581 25.6156 75.7796 23.5969C76.7491 21.8517 77.3183 19.9489 77.4537 18.0016L77.7778 13.3333L78.1019 18.0016C78.2373 19.9489 78.8065 21.8517 79.7759 23.5969ZM90.7407 43.4323C90.7407 41.175 90.1569 38.949 89.0352 36.93C88.0657 35.185 87.4965 33.2821 87.3611 31.335L87.037 26.6667L86.713 31.335C86.5775 33.2821 86.0083 35.185 85.0389 36.93C83.9174 38.949 83.3333 41.175 83.3333 43.4323V56.5677C83.3333 58.8248 83.9174 61.051 85.0389 63.0698C86.0083 64.815 86.5775 66.7177 86.713 68.665L87.037 73.3333L87.3611 68.665C87.4965 66.7177 88.0657 64.815 89.0352 63.0698C90.1569 61.051 90.7407 58.8248 90.7407 56.5677V43.4323ZM99.9995 50C99.9998 50.0329 100 50.0658 100 50.099V49.901C100 49.9342 99.9998 49.9671 99.9995 50ZM92.593 50C92.6097 52.2233 93.1928 54.414 94.2981 56.4031C95.2676 58.1483 95.8368 60.051 95.9722 61.9983L96.2963 66.6667L96.6204 61.9983C96.7558 60.051 97.325 58.1483 98.2944 56.4031C99.3998 54.414 99.9829 52.2233 99.9995 50C99.9829 47.7767 99.3998 45.586 98.2944 43.5969C97.325 41.8517 96.7558 39.949 96.6204 38.0017L96.2963 33.3333L95.9722 38.0017C95.8368 39.949 95.2676 41.8517 94.2981 43.5969C93.1928 45.586 92.6097 47.7767 92.593 50ZM92.593 50C92.5928 49.9671 92.5926 49.9342 92.5926 49.901V50.099C92.5926 50.0658 92.5928 50.0329 92.593 50Z" fill="white"/>
</svg>
